<mxfile host="app.diagrams.net" agent="Mozilla/5.0 (Windows NT 10.0; Win64; x64) AppleWebKit/537.36 (KHTML, like Gecko) Chrome/132.0.0.0 Safari/537.36" version="26.0.6">
  <diagram name="Page-1" id="b_cmY7nf2SL3D1W9G-qD">
    <mxGraphModel dx="2206" dy="1188" grid="1" gridSize="10" guides="1" tooltips="1" connect="1" arrows="1" fold="1" page="1" pageScale="1" pageWidth="850" pageHeight="1100" math="0" shadow="0">
      <root>
        <mxCell id="0" />
        <mxCell id="1" parent="0" />
        <mxCell id="X5Z6C7hF7MY6zSq2zKzd-78" value="" style="verticalLabelPosition=bottom;verticalAlign=top;html=1;shadow=0;dashed=0;strokeWidth=1;shape=mxgraph.ios.iBgFlat;strokeColor=#18211b;" vertex="1" parent="1">
          <mxGeometry x="2073.5" y="190" width="890" height="2080" as="geometry" />
        </mxCell>
        <mxCell id="X5Z6C7hF7MY6zSq2zKzd-73" value="" style="verticalLabelPosition=bottom;verticalAlign=top;html=1;shadow=0;dashed=0;strokeWidth=1;shape=mxgraph.ios.iBgFlat;strokeColor=#18211b;" vertex="1" parent="1">
          <mxGeometry x="1200" y="190" width="980" height="2080" as="geometry" />
        </mxCell>
        <mxCell id="X5Z6C7hF7MY6zSq2zKzd-2" value="" style="verticalLabelPosition=bottom;verticalAlign=top;html=1;shadow=0;dashed=0;strokeWidth=1;shape=mxgraph.ios.iBgFlat;strokeColor=#18211b;" vertex="1" parent="1">
          <mxGeometry x="120" y="20" width="900" height="2080" as="geometry" />
        </mxCell>
        <mxCell id="X5Z6C7hF7MY6zSq2zKzd-1" value="&lt;span style=&quot;font-size: 28px;&quot;&gt;&lt;b&gt;FLOWCHART AND PRODUK&lt;/b&gt;&lt;/span&gt;" style="text;html=1;align=center;verticalAlign=middle;whiteSpace=wrap;rounded=0;" vertex="1" parent="1">
          <mxGeometry x="380" y="70" width="440" height="30" as="geometry" />
        </mxCell>
        <mxCell id="X5Z6C7hF7MY6zSq2zKzd-3" value="&lt;span style=&quot;font-size: 28px;&quot;&gt;&lt;b&gt;ADMIN&amp;nbsp;&lt;/b&gt;&lt;/span&gt;" style="text;html=1;align=center;verticalAlign=middle;whiteSpace=wrap;rounded=0;" vertex="1" parent="1">
          <mxGeometry x="380" y="120" width="440" height="30" as="geometry" />
        </mxCell>
        <mxCell id="X5Z6C7hF7MY6zSq2zKzd-7" style="edgeStyle=orthogonalEdgeStyle;rounded=0;orthogonalLoop=1;jettySize=auto;html=1;" edge="1" parent="1" source="X5Z6C7hF7MY6zSq2zKzd-4" target="X5Z6C7hF7MY6zSq2zKzd-5">
          <mxGeometry relative="1" as="geometry" />
        </mxCell>
        <mxCell id="X5Z6C7hF7MY6zSq2zKzd-4" value="&lt;font style=&quot;font-size: 18px;&quot;&gt;Mulai&lt;/font&gt;" style="strokeWidth=2;html=1;shape=mxgraph.flowchart.start_1;whiteSpace=wrap;" vertex="1" parent="1">
          <mxGeometry x="280" y="160" width="200" height="60" as="geometry" />
        </mxCell>
        <mxCell id="X5Z6C7hF7MY6zSq2zKzd-5" value="&lt;font style=&quot;font-size: 18px;&quot;&gt;login&lt;/font&gt;" style="strokeWidth=2;html=1;shape=mxgraph.flowchart.display;whiteSpace=wrap;" vertex="1" parent="1">
          <mxGeometry x="310" y="290" width="140" height="80" as="geometry" />
        </mxCell>
        <mxCell id="X5Z6C7hF7MY6zSq2zKzd-14" style="edgeStyle=orthogonalEdgeStyle;rounded=0;orthogonalLoop=1;jettySize=auto;html=1;entryX=0.5;entryY=0;entryDx=0;entryDy=0;" edge="1" parent="1" source="X5Z6C7hF7MY6zSq2zKzd-8" target="X5Z6C7hF7MY6zSq2zKzd-13">
          <mxGeometry relative="1" as="geometry" />
        </mxCell>
        <mxCell id="X5Z6C7hF7MY6zSq2zKzd-8" value="&lt;font style=&quot;font-size: 18px;&quot;&gt;memasukan&lt;/font&gt;&lt;div&gt;&lt;font style=&quot;font-size: 18px;&quot;&gt;username &amp;amp;&lt;/font&gt;&lt;/div&gt;&lt;div&gt;&lt;font style=&quot;font-size: 18px;&quot;&gt;password&lt;/font&gt;&lt;/div&gt;" style="html=1;strokeWidth=2;shape=manualInput;whiteSpace=wrap;rounded=1;size=26;arcSize=11;" vertex="1" parent="1">
          <mxGeometry x="305" y="420" width="150" height="110" as="geometry" />
        </mxCell>
        <mxCell id="X5Z6C7hF7MY6zSq2zKzd-12" style="edgeStyle=orthogonalEdgeStyle;rounded=0;orthogonalLoop=1;jettySize=auto;html=1;entryX=0.5;entryY=0.127;entryDx=0;entryDy=0;entryPerimeter=0;" edge="1" parent="1" source="X5Z6C7hF7MY6zSq2zKzd-5" target="X5Z6C7hF7MY6zSq2zKzd-8">
          <mxGeometry relative="1" as="geometry" />
        </mxCell>
        <mxCell id="X5Z6C7hF7MY6zSq2zKzd-18" style="edgeStyle=orthogonalEdgeStyle;rounded=0;orthogonalLoop=1;jettySize=auto;html=1;" edge="1" parent="1" source="X5Z6C7hF7MY6zSq2zKzd-13" target="X5Z6C7hF7MY6zSq2zKzd-15">
          <mxGeometry relative="1" as="geometry" />
        </mxCell>
        <mxCell id="X5Z6C7hF7MY6zSq2zKzd-13" value="&lt;font style=&quot;font-size: 18px;&quot;&gt;Verifikasi&lt;/font&gt;" style="rounded=1;whiteSpace=wrap;html=1;absoluteArcSize=1;arcSize=14;strokeWidth=2;" vertex="1" parent="1">
          <mxGeometry x="312.5" y="590" width="135" height="50" as="geometry" />
        </mxCell>
        <mxCell id="X5Z6C7hF7MY6zSq2zKzd-15" value="&lt;font style=&quot;font-size: 18px;&quot;&gt;data base&lt;/font&gt;" style="strokeWidth=2;html=1;shape=mxgraph.flowchart.database;whiteSpace=wrap;" vertex="1" parent="1">
          <mxGeometry x="500" y="577.5" width="90" height="75" as="geometry" />
        </mxCell>
        <mxCell id="X5Z6C7hF7MY6zSq2zKzd-32" style="edgeStyle=orthogonalEdgeStyle;rounded=0;orthogonalLoop=1;jettySize=auto;html=1;" edge="1" parent="1" source="X5Z6C7hF7MY6zSq2zKzd-19" target="X5Z6C7hF7MY6zSq2zKzd-28">
          <mxGeometry relative="1" as="geometry" />
        </mxCell>
        <mxCell id="X5Z6C7hF7MY6zSq2zKzd-19" value="&lt;font style=&quot;font-size: 18px;&quot;&gt;berhasil&lt;/font&gt;" style="strokeWidth=2;html=1;shape=mxgraph.flowchart.decision;whiteSpace=wrap;" vertex="1" parent="1">
          <mxGeometry x="330" y="690" width="100" height="100" as="geometry" />
        </mxCell>
        <mxCell id="X5Z6C7hF7MY6zSq2zKzd-28" value="&lt;font style=&quot;font-size: 18px;&quot;&gt;dasboard&lt;/font&gt;" style="strokeWidth=2;html=1;shape=mxgraph.flowchart.display;whiteSpace=wrap;" vertex="1" parent="1">
          <mxGeometry x="320" y="850" width="120" height="70" as="geometry" />
        </mxCell>
        <mxCell id="X5Z6C7hF7MY6zSq2zKzd-37" style="edgeStyle=orthogonalEdgeStyle;rounded=0;orthogonalLoop=1;jettySize=auto;html=1;" edge="1" parent="1" source="X5Z6C7hF7MY6zSq2zKzd-30" target="X5Z6C7hF7MY6zSq2zKzd-31">
          <mxGeometry relative="1" as="geometry" />
        </mxCell>
        <mxCell id="X5Z6C7hF7MY6zSq2zKzd-30" value="&lt;font style=&quot;font-size: 18px;&quot;&gt;user memilih&lt;/font&gt;&lt;div&gt;&lt;font style=&quot;font-size: 18px;&quot;&gt;tambah&lt;/font&gt;&lt;/div&gt;" style="strokeWidth=2;html=1;shape=mxgraph.flowchart.decision;whiteSpace=wrap;" vertex="1" parent="1">
          <mxGeometry x="307.5" y="960" width="142.5" height="150" as="geometry" />
        </mxCell>
        <mxCell id="X5Z6C7hF7MY6zSq2zKzd-31" value="&lt;font style=&quot;font-size: 18px;&quot;&gt;from input&lt;/font&gt;&lt;div&gt;&lt;font style=&quot;font-size: 18px;&quot;&gt;produk&lt;/font&gt;&lt;/div&gt;" style="strokeWidth=2;html=1;shape=mxgraph.flowchart.display;whiteSpace=wrap;" vertex="1" parent="1">
          <mxGeometry x="305" y="1160" width="150" height="70" as="geometry" />
        </mxCell>
        <mxCell id="X5Z6C7hF7MY6zSq2zKzd-36" style="edgeStyle=orthogonalEdgeStyle;rounded=0;orthogonalLoop=1;jettySize=auto;html=1;entryX=0.5;entryY=0;entryDx=0;entryDy=0;entryPerimeter=0;" edge="1" parent="1" source="X5Z6C7hF7MY6zSq2zKzd-28" target="X5Z6C7hF7MY6zSq2zKzd-30">
          <mxGeometry relative="1" as="geometry" />
        </mxCell>
        <mxCell id="X5Z6C7hF7MY6zSq2zKzd-42" style="edgeStyle=orthogonalEdgeStyle;rounded=0;orthogonalLoop=1;jettySize=auto;html=1;entryX=0.5;entryY=0;entryDx=0;entryDy=0;" edge="1" parent="1" source="X5Z6C7hF7MY6zSq2zKzd-38" target="X5Z6C7hF7MY6zSq2zKzd-41">
          <mxGeometry relative="1" as="geometry" />
        </mxCell>
        <mxCell id="X5Z6C7hF7MY6zSq2zKzd-38" value="&lt;font style=&quot;font-size: 18px;&quot;&gt;memasukan&amp;nbsp;&lt;/font&gt;&lt;div&gt;&lt;font style=&quot;font-size: 18px;&quot;&gt;data&lt;/font&gt;&lt;/div&gt;" style="html=1;strokeWidth=2;shape=manualInput;whiteSpace=wrap;rounded=1;size=26;arcSize=11;" vertex="1" parent="1">
          <mxGeometry x="315" y="1280" width="130" height="90" as="geometry" />
        </mxCell>
        <mxCell id="X5Z6C7hF7MY6zSq2zKzd-40" style="edgeStyle=orthogonalEdgeStyle;rounded=0;orthogonalLoop=1;jettySize=auto;html=1;entryX=0.501;entryY=0.15;entryDx=0;entryDy=0;entryPerimeter=0;" edge="1" parent="1" source="X5Z6C7hF7MY6zSq2zKzd-31" target="X5Z6C7hF7MY6zSq2zKzd-38">
          <mxGeometry relative="1" as="geometry" />
        </mxCell>
        <mxCell id="X5Z6C7hF7MY6zSq2zKzd-41" value="&lt;font style=&quot;font-size: 18px;&quot;&gt;proses sampai&lt;/font&gt;" style="rounded=1;whiteSpace=wrap;html=1;absoluteArcSize=1;arcSize=14;strokeWidth=2;" vertex="1" parent="1">
          <mxGeometry x="312.5" y="1440" width="135" height="50" as="geometry" />
        </mxCell>
        <mxCell id="X5Z6C7hF7MY6zSq2zKzd-43" value="&lt;span style=&quot;font-size: 18px;&quot;&gt;halaman&amp;nbsp;&lt;/span&gt;&lt;div&gt;&lt;span style=&quot;font-size: 18px;&quot;&gt;produk&lt;/span&gt;&lt;/div&gt;" style="strokeWidth=2;html=1;shape=mxgraph.flowchart.display;whiteSpace=wrap;" vertex="1" parent="1">
          <mxGeometry x="305" y="1550" width="150" height="70" as="geometry" />
        </mxCell>
        <mxCell id="X5Z6C7hF7MY6zSq2zKzd-44" style="edgeStyle=orthogonalEdgeStyle;rounded=0;orthogonalLoop=1;jettySize=auto;html=1;entryX=0.5;entryY=0;entryDx=0;entryDy=0;entryPerimeter=0;" edge="1" parent="1" source="X5Z6C7hF7MY6zSq2zKzd-41" target="X5Z6C7hF7MY6zSq2zKzd-43">
          <mxGeometry relative="1" as="geometry" />
        </mxCell>
        <mxCell id="X5Z6C7hF7MY6zSq2zKzd-63" style="edgeStyle=orthogonalEdgeStyle;rounded=0;orthogonalLoop=1;jettySize=auto;html=1;" edge="1" parent="1" source="X5Z6C7hF7MY6zSq2zKzd-45" target="X5Z6C7hF7MY6zSq2zKzd-52">
          <mxGeometry relative="1" as="geometry" />
        </mxCell>
        <mxCell id="X5Z6C7hF7MY6zSq2zKzd-45" value="&lt;span style=&quot;font-size: 18px;&quot;&gt;edit produk?&lt;/span&gt;" style="strokeWidth=2;html=1;shape=mxgraph.flowchart.decision;whiteSpace=wrap;" vertex="1" parent="1">
          <mxGeometry x="510" y="1030" width="145" height="150" as="geometry" />
        </mxCell>
        <mxCell id="X5Z6C7hF7MY6zSq2zKzd-46" value="&lt;font style=&quot;font-size: 18px;&quot;&gt;from edit&lt;/font&gt;&lt;div&gt;&lt;font style=&quot;font-size: 18px;&quot;&gt;produk&lt;/font&gt;&lt;/div&gt;" style="strokeWidth=2;html=1;shape=mxgraph.flowchart.display;whiteSpace=wrap;" vertex="1" parent="1">
          <mxGeometry x="522.5" y="1240" width="120" height="70" as="geometry" />
        </mxCell>
        <mxCell id="X5Z6C7hF7MY6zSq2zKzd-47" style="edgeStyle=orthogonalEdgeStyle;rounded=0;orthogonalLoop=1;jettySize=auto;html=1;entryX=0.5;entryY=0;entryDx=0;entryDy=0;entryPerimeter=0;" edge="1" parent="1" source="X5Z6C7hF7MY6zSq2zKzd-45" target="X5Z6C7hF7MY6zSq2zKzd-46">
          <mxGeometry relative="1" as="geometry" />
        </mxCell>
        <mxCell id="X5Z6C7hF7MY6zSq2zKzd-50" style="edgeStyle=orthogonalEdgeStyle;rounded=0;orthogonalLoop=1;jettySize=auto;html=1;entryX=0.5;entryY=0;entryDx=0;entryDy=0;" edge="1" parent="1" source="X5Z6C7hF7MY6zSq2zKzd-48" target="X5Z6C7hF7MY6zSq2zKzd-49">
          <mxGeometry relative="1" as="geometry" />
        </mxCell>
        <mxCell id="X5Z6C7hF7MY6zSq2zKzd-48" value="&lt;span style=&quot;font-size: 18px;&quot;&gt;merubah data&lt;/span&gt;" style="html=1;strokeWidth=2;shape=manualInput;whiteSpace=wrap;rounded=1;size=26;arcSize=11;" vertex="1" parent="1">
          <mxGeometry x="517.5" y="1350" width="130" height="90" as="geometry" />
        </mxCell>
        <mxCell id="X5Z6C7hF7MY6zSq2zKzd-49" value="&lt;font style=&quot;font-size: 18px;&quot;&gt;proses&amp;nbsp;&lt;/font&gt;" style="rounded=1;whiteSpace=wrap;html=1;absoluteArcSize=1;arcSize=14;strokeWidth=2;" vertex="1" parent="1">
          <mxGeometry x="515" y="1490" width="135" height="50" as="geometry" />
        </mxCell>
        <mxCell id="X5Z6C7hF7MY6zSq2zKzd-51" value="&lt;span style=&quot;font-size: 18px;&quot;&gt;halaman&amp;nbsp;&lt;/span&gt;&lt;div&gt;&lt;span style=&quot;font-size: 18px;&quot;&gt;produk&lt;/span&gt;&lt;/div&gt;" style="strokeWidth=2;html=1;shape=mxgraph.flowchart.display;whiteSpace=wrap;" vertex="1" parent="1">
          <mxGeometry x="507.5" y="1600" width="150" height="80" as="geometry" />
        </mxCell>
        <mxCell id="X5Z6C7hF7MY6zSq2zKzd-52" value="&lt;span style=&quot;font-size: 18px;&quot;&gt;hapus&lt;/span&gt;" style="strokeWidth=2;html=1;shape=mxgraph.flowchart.decision;whiteSpace=wrap;" vertex="1" parent="1">
          <mxGeometry x="705" y="1110" width="145" height="150" as="geometry" />
        </mxCell>
        <mxCell id="X5Z6C7hF7MY6zSq2zKzd-58" style="edgeStyle=orthogonalEdgeStyle;rounded=0;orthogonalLoop=1;jettySize=auto;html=1;entryX=0.5;entryY=0;entryDx=0;entryDy=0;" edge="1" parent="1" source="X5Z6C7hF7MY6zSq2zKzd-53" target="X5Z6C7hF7MY6zSq2zKzd-57">
          <mxGeometry relative="1" as="geometry" />
        </mxCell>
        <mxCell id="X5Z6C7hF7MY6zSq2zKzd-53" value="&lt;font style=&quot;font-size: 18px;&quot;&gt;atert hapus&lt;/font&gt;" style="strokeWidth=2;html=1;shape=mxgraph.flowchart.display;whiteSpace=wrap;" vertex="1" parent="1">
          <mxGeometry x="717.5" y="1320" width="120" height="70" as="geometry" />
        </mxCell>
        <mxCell id="X5Z6C7hF7MY6zSq2zKzd-54" style="edgeStyle=orthogonalEdgeStyle;rounded=0;orthogonalLoop=1;jettySize=auto;html=1;entryX=0.5;entryY=0;entryDx=0;entryDy=0;entryPerimeter=0;" edge="1" parent="1" source="X5Z6C7hF7MY6zSq2zKzd-52" target="X5Z6C7hF7MY6zSq2zKzd-53">
          <mxGeometry relative="1" as="geometry" />
        </mxCell>
        <mxCell id="X5Z6C7hF7MY6zSq2zKzd-62" style="edgeStyle=orthogonalEdgeStyle;rounded=0;orthogonalLoop=1;jettySize=auto;html=1;" edge="1" parent="1" source="X5Z6C7hF7MY6zSq2zKzd-57" target="X5Z6C7hF7MY6zSq2zKzd-59">
          <mxGeometry relative="1" as="geometry" />
        </mxCell>
        <mxCell id="X5Z6C7hF7MY6zSq2zKzd-57" value="&lt;font style=&quot;font-size: 18px;&quot;&gt;proses hapus&lt;/font&gt;" style="rounded=1;whiteSpace=wrap;html=1;absoluteArcSize=1;arcSize=14;strokeWidth=2;" vertex="1" parent="1">
          <mxGeometry x="710" y="1460" width="135" height="50" as="geometry" />
        </mxCell>
        <mxCell id="X5Z6C7hF7MY6zSq2zKzd-59" value="&lt;span style=&quot;font-size: 18px;&quot;&gt;halaman&amp;nbsp;&lt;/span&gt;&lt;div&gt;&lt;span style=&quot;font-size: 18px;&quot;&gt;produk&lt;/span&gt;&lt;/div&gt;" style="strokeWidth=2;html=1;shape=mxgraph.flowchart.display;whiteSpace=wrap;" vertex="1" parent="1">
          <mxGeometry x="702.5" y="1570" width="150" height="80" as="geometry" />
        </mxCell>
        <mxCell id="X5Z6C7hF7MY6zSq2zKzd-60" style="edgeStyle=orthogonalEdgeStyle;rounded=0;orthogonalLoop=1;jettySize=auto;html=1;entryX=0.5;entryY=0;entryDx=0;entryDy=0;entryPerimeter=0;" edge="1" parent="1" source="X5Z6C7hF7MY6zSq2zKzd-49" target="X5Z6C7hF7MY6zSq2zKzd-51">
          <mxGeometry relative="1" as="geometry" />
        </mxCell>
        <mxCell id="X5Z6C7hF7MY6zSq2zKzd-65" style="edgeStyle=orthogonalEdgeStyle;rounded=0;orthogonalLoop=1;jettySize=auto;html=1;entryX=0;entryY=0.5;entryDx=0;entryDy=0;entryPerimeter=0;" edge="1" parent="1" source="X5Z6C7hF7MY6zSq2zKzd-30" target="X5Z6C7hF7MY6zSq2zKzd-45">
          <mxGeometry relative="1" as="geometry" />
        </mxCell>
        <mxCell id="X5Z6C7hF7MY6zSq2zKzd-67" value="&lt;font style=&quot;font-size: 18px;&quot;&gt;selesai&lt;/font&gt;" style="strokeWidth=2;html=1;shape=mxgraph.flowchart.start_1;whiteSpace=wrap;" vertex="1" parent="1">
          <mxGeometry x="482.5" y="1800" width="200" height="60" as="geometry" />
        </mxCell>
        <mxCell id="X5Z6C7hF7MY6zSq2zKzd-68" style="edgeStyle=orthogonalEdgeStyle;rounded=0;orthogonalLoop=1;jettySize=auto;html=1;entryX=0;entryY=0.5;entryDx=0;entryDy=0;entryPerimeter=0;" edge="1" parent="1" source="X5Z6C7hF7MY6zSq2zKzd-43" target="X5Z6C7hF7MY6zSq2zKzd-67">
          <mxGeometry relative="1" as="geometry">
            <Array as="points">
              <mxPoint x="380" y="1830" />
            </Array>
          </mxGeometry>
        </mxCell>
        <mxCell id="X5Z6C7hF7MY6zSq2zKzd-69" style="edgeStyle=orthogonalEdgeStyle;rounded=0;orthogonalLoop=1;jettySize=auto;html=1;entryX=0.5;entryY=0;entryDx=0;entryDy=0;entryPerimeter=0;" edge="1" parent="1" source="X5Z6C7hF7MY6zSq2zKzd-51" target="X5Z6C7hF7MY6zSq2zKzd-67">
          <mxGeometry relative="1" as="geometry" />
        </mxCell>
        <mxCell id="X5Z6C7hF7MY6zSq2zKzd-70" style="edgeStyle=orthogonalEdgeStyle;rounded=0;orthogonalLoop=1;jettySize=auto;html=1;entryX=1;entryY=0.5;entryDx=0;entryDy=0;entryPerimeter=0;" edge="1" parent="1" source="X5Z6C7hF7MY6zSq2zKzd-59" target="X5Z6C7hF7MY6zSq2zKzd-67">
          <mxGeometry relative="1" as="geometry">
            <Array as="points">
              <mxPoint x="790" y="1830" />
            </Array>
          </mxGeometry>
        </mxCell>
        <mxCell id="X5Z6C7hF7MY6zSq2zKzd-71" style="edgeStyle=orthogonalEdgeStyle;rounded=0;orthogonalLoop=1;jettySize=auto;html=1;entryX=1;entryY=0.5;entryDx=0;entryDy=0;entryPerimeter=0;" edge="1" parent="1" source="X5Z6C7hF7MY6zSq2zKzd-15" target="X5Z6C7hF7MY6zSq2zKzd-19">
          <mxGeometry relative="1" as="geometry">
            <Array as="points">
              <mxPoint x="545" y="740" />
            </Array>
          </mxGeometry>
        </mxCell>
        <mxCell id="X5Z6C7hF7MY6zSq2zKzd-72" style="edgeStyle=orthogonalEdgeStyle;rounded=0;orthogonalLoop=1;jettySize=auto;html=1;entryX=0;entryY=0.75;entryDx=0;entryDy=0;" edge="1" parent="1" source="X5Z6C7hF7MY6zSq2zKzd-19" target="X5Z6C7hF7MY6zSq2zKzd-8">
          <mxGeometry relative="1" as="geometry">
            <Array as="points">
              <mxPoint x="220" y="740" />
              <mxPoint x="220" y="502" />
            </Array>
          </mxGeometry>
        </mxCell>
        <mxCell id="X5Z6C7hF7MY6zSq2zKzd-74" value="&lt;span style=&quot;font-size: 28px;&quot;&gt;&lt;b&gt;FLOWCHAT PEMINJAMAN AND PENGEMBALIAN&lt;/b&gt;&lt;/span&gt;" style="text;html=1;align=center;verticalAlign=middle;whiteSpace=wrap;rounded=0;" vertex="1" parent="1">
          <mxGeometry x="1840" y="90" width="880" height="30" as="geometry" />
        </mxCell>
        <mxCell id="X5Z6C7hF7MY6zSq2zKzd-79" value="&lt;span style=&quot;font-size: 28px;&quot;&gt;&lt;b&gt;USER&lt;/b&gt;&lt;/span&gt;" style="text;html=1;align=center;verticalAlign=middle;whiteSpace=wrap;rounded=0;" vertex="1" parent="1">
          <mxGeometry x="1450" y="220" width="440" height="30" as="geometry" />
        </mxCell>
        <mxCell id="X5Z6C7hF7MY6zSq2zKzd-80" value="&lt;span style=&quot;font-size: 28px;&quot;&gt;&lt;b&gt;ADMIN&lt;/b&gt;&lt;/span&gt;" style="text;html=1;align=center;verticalAlign=middle;whiteSpace=wrap;rounded=0;" vertex="1" parent="1">
          <mxGeometry x="2280" y="220" width="440" height="30" as="geometry" />
        </mxCell>
        <mxCell id="X5Z6C7hF7MY6zSq2zKzd-83" style="edgeStyle=orthogonalEdgeStyle;rounded=0;orthogonalLoop=1;jettySize=auto;html=1;" edge="1" parent="1" source="X5Z6C7hF7MY6zSq2zKzd-81" target="X5Z6C7hF7MY6zSq2zKzd-82">
          <mxGeometry relative="1" as="geometry" />
        </mxCell>
        <mxCell id="X5Z6C7hF7MY6zSq2zKzd-81" value="&lt;span style=&quot;font-size: 18px;&quot;&gt;halaman&amp;nbsp;&lt;/span&gt;&lt;div&gt;&lt;span style=&quot;font-size: 18px;&quot;&gt;peminjaman&lt;/span&gt;&lt;/div&gt;" style="strokeWidth=2;html=1;shape=mxgraph.flowchart.display;whiteSpace=wrap;" vertex="1" parent="1">
          <mxGeometry x="1595" y="330" width="150" height="70" as="geometry" />
        </mxCell>
        <mxCell id="X5Z6C7hF7MY6zSq2zKzd-85" style="edgeStyle=orthogonalEdgeStyle;rounded=0;orthogonalLoop=1;jettySize=auto;html=1;" edge="1" parent="1" source="X5Z6C7hF7MY6zSq2zKzd-82" target="X5Z6C7hF7MY6zSq2zKzd-84">
          <mxGeometry relative="1" as="geometry" />
        </mxCell>
        <mxCell id="X5Z6C7hF7MY6zSq2zKzd-82" value="&lt;span style=&quot;font-size: 18px;&quot;&gt;Peminjaman&lt;/span&gt;" style="strokeWidth=2;html=1;shape=mxgraph.flowchart.decision;whiteSpace=wrap;" vertex="1" parent="1">
          <mxGeometry x="1598" y="450" width="145" height="150" as="geometry" />
        </mxCell>
        <mxCell id="X5Z6C7hF7MY6zSq2zKzd-93" style="edgeStyle=orthogonalEdgeStyle;rounded=0;orthogonalLoop=1;jettySize=auto;html=1;" edge="1" parent="1" source="X5Z6C7hF7MY6zSq2zKzd-84" target="X5Z6C7hF7MY6zSq2zKzd-90">
          <mxGeometry relative="1" as="geometry" />
        </mxCell>
        <mxCell id="X5Z6C7hF7MY6zSq2zKzd-84" value="&lt;div&gt;&lt;font style=&quot;font-size: 18px;&quot;&gt;&lt;br&gt;&lt;/font&gt;&lt;/div&gt;&lt;div&gt;&lt;font style=&quot;font-size: 18px;&quot;&gt;Mengisi form&lt;/font&gt;&lt;/div&gt;&lt;div&gt;&lt;font style=&quot;font-size: 18px;&quot;&gt;peminjaman&lt;/font&gt;&lt;/div&gt;" style="html=1;strokeWidth=2;shape=manualInput;whiteSpace=wrap;rounded=1;size=26;arcSize=11;" vertex="1" parent="1">
          <mxGeometry x="1590.75" y="660" width="159.5" height="80" as="geometry" />
        </mxCell>
        <mxCell id="X5Z6C7hF7MY6zSq2zKzd-92" style="edgeStyle=orthogonalEdgeStyle;rounded=0;orthogonalLoop=1;jettySize=auto;html=1;" edge="1" parent="1" source="X5Z6C7hF7MY6zSq2zKzd-87" target="X5Z6C7hF7MY6zSq2zKzd-89">
          <mxGeometry relative="1" as="geometry" />
        </mxCell>
        <mxCell id="X5Z6C7hF7MY6zSq2zKzd-87" value="&lt;font style=&quot;font-size: 18px;&quot;&gt;DataBase&lt;/font&gt;" style="strokeWidth=2;html=1;shape=mxgraph.flowchart.database;whiteSpace=wrap;" vertex="1" parent="1">
          <mxGeometry x="2440" y="660" width="90" height="80" as="geometry" />
        </mxCell>
        <mxCell id="X5Z6C7hF7MY6zSq2zKzd-88" style="edgeStyle=orthogonalEdgeStyle;rounded=0;orthogonalLoop=1;jettySize=auto;html=1;entryX=0;entryY=0.5;entryDx=0;entryDy=0;entryPerimeter=0;" edge="1" parent="1" source="X5Z6C7hF7MY6zSq2zKzd-84" target="X5Z6C7hF7MY6zSq2zKzd-87">
          <mxGeometry relative="1" as="geometry" />
        </mxCell>
        <mxCell id="X5Z6C7hF7MY6zSq2zKzd-89" value="&lt;div&gt;&lt;font style=&quot;font-size: 18px;&quot;&gt;&lt;br&gt;&lt;/font&gt;&lt;/div&gt;&lt;div&gt;&lt;font style=&quot;font-size: 18px;&quot;&gt;Data&amp;nbsp;&lt;/font&gt;&lt;/div&gt;&lt;div&gt;&lt;font style=&quot;font-size: 18px;&quot;&gt;Peminjaman&lt;/font&gt;&lt;/div&gt;" style="html=1;strokeWidth=2;shape=manualInput;whiteSpace=wrap;rounded=1;size=26;arcSize=11;" vertex="1" parent="1">
          <mxGeometry x="2405" y="795" width="160" height="80" as="geometry" />
        </mxCell>
        <mxCell id="X5Z6C7hF7MY6zSq2zKzd-90" value="&lt;font style=&quot;font-size: 18px;&quot;&gt;&lt;br&gt;&lt;/font&gt;&lt;div&gt;&lt;font style=&quot;font-size: 18px;&quot;&gt;Laporan&lt;/font&gt;&lt;/div&gt;&lt;div&gt;&lt;font style=&quot;font-size: 18px;&quot;&gt;Peminjaman&lt;/font&gt;&lt;/div&gt;" style="html=1;strokeWidth=2;shape=manualInput;whiteSpace=wrap;rounded=1;size=26;arcSize=11;" vertex="1" parent="1">
          <mxGeometry x="1591" y="795" width="159.25" height="80" as="geometry" />
        </mxCell>
        <mxCell id="X5Z6C7hF7MY6zSq2zKzd-94" value="&lt;span style=&quot;font-size: 18px;&quot;&gt;halaman&amp;nbsp;&lt;/span&gt;&lt;div&gt;&lt;span style=&quot;font-size: 18px;&quot;&gt;Dashboard&lt;/span&gt;&lt;/div&gt;" style="strokeWidth=2;html=1;shape=mxgraph.flowchart.display;whiteSpace=wrap;" vertex="1" parent="1">
          <mxGeometry x="1924.5" y="1120" width="150" height="70" as="geometry" />
        </mxCell>
        <mxCell id="X5Z6C7hF7MY6zSq2zKzd-119" style="edgeStyle=orthogonalEdgeStyle;rounded=0;orthogonalLoop=1;jettySize=auto;html=1;entryX=0.5;entryY=0;entryDx=0;entryDy=0;" edge="1" parent="1" source="X5Z6C7hF7MY6zSq2zKzd-97" target="X5Z6C7hF7MY6zSq2zKzd-117">
          <mxGeometry relative="1" as="geometry" />
        </mxCell>
        <mxCell id="X5Z6C7hF7MY6zSq2zKzd-97" value="&lt;span style=&quot;font-size: 18px;&quot;&gt;Pengembalian&lt;/span&gt;" style="strokeWidth=2;html=1;shape=mxgraph.flowchart.decision;whiteSpace=wrap;" vertex="1" parent="1">
          <mxGeometry x="1925" y="1440" width="145" height="150" as="geometry" />
        </mxCell>
        <mxCell id="X5Z6C7hF7MY6zSq2zKzd-102" style="edgeStyle=orthogonalEdgeStyle;rounded=0;orthogonalLoop=1;jettySize=auto;html=1;" edge="1" parent="1" source="X5Z6C7hF7MY6zSq2zKzd-100" target="X5Z6C7hF7MY6zSq2zKzd-97">
          <mxGeometry relative="1" as="geometry" />
        </mxCell>
        <mxCell id="X5Z6C7hF7MY6zSq2zKzd-100" value="&lt;span style=&quot;font-size: 18px;&quot;&gt;halaman&amp;nbsp;&lt;/span&gt;&lt;div&gt;&lt;span style=&quot;font-size: 18px;&quot;&gt;Pengembalian&lt;/span&gt;&lt;/div&gt;" style="strokeWidth=2;html=1;shape=mxgraph.flowchart.display;whiteSpace=wrap;" vertex="1" parent="1">
          <mxGeometry x="1923.5" y="1250" width="150" height="70" as="geometry" />
        </mxCell>
        <mxCell id="X5Z6C7hF7MY6zSq2zKzd-101" style="edgeStyle=orthogonalEdgeStyle;rounded=0;orthogonalLoop=1;jettySize=auto;html=1;entryX=0.5;entryY=0;entryDx=0;entryDy=0;entryPerimeter=0;" edge="1" parent="1" source="X5Z6C7hF7MY6zSq2zKzd-94" target="X5Z6C7hF7MY6zSq2zKzd-100">
          <mxGeometry relative="1" as="geometry" />
        </mxCell>
        <mxCell id="X5Z6C7hF7MY6zSq2zKzd-103" style="edgeStyle=orthogonalEdgeStyle;rounded=0;orthogonalLoop=1;jettySize=auto;html=1;entryX=1;entryY=0.5;entryDx=0;entryDy=0;entryPerimeter=0;" edge="1" parent="1" source="X5Z6C7hF7MY6zSq2zKzd-82" target="X5Z6C7hF7MY6zSq2zKzd-81">
          <mxGeometry relative="1" as="geometry">
            <Array as="points">
              <mxPoint x="1920" y="525" />
              <mxPoint x="1920" y="365" />
            </Array>
          </mxGeometry>
        </mxCell>
        <mxCell id="X5Z6C7hF7MY6zSq2zKzd-104" value="&lt;font style=&quot;font-size: 18px;&quot;&gt;Tidak&lt;/font&gt;" style="text;html=1;align=center;verticalAlign=middle;whiteSpace=wrap;rounded=0;" vertex="1" parent="1">
          <mxGeometry x="255" y="700" width="60" height="30" as="geometry" />
        </mxCell>
        <mxCell id="X5Z6C7hF7MY6zSq2zKzd-105" value="&lt;font style=&quot;font-size: 18px;&quot;&gt;Ya&lt;/font&gt;" style="text;html=1;align=center;verticalAlign=middle;whiteSpace=wrap;rounded=0;" vertex="1" parent="1">
          <mxGeometry x="395" y="800" width="60" height="30" as="geometry" />
        </mxCell>
        <mxCell id="X5Z6C7hF7MY6zSq2zKzd-106" value="&lt;font style=&quot;font-size: 18px;&quot;&gt;Tidak&lt;/font&gt;" style="text;html=1;align=center;verticalAlign=middle;whiteSpace=wrap;rounded=0;" vertex="1" parent="1">
          <mxGeometry x="445" y="1000" width="60" height="30" as="geometry" />
        </mxCell>
        <mxCell id="X5Z6C7hF7MY6zSq2zKzd-107" value="&lt;font style=&quot;font-size: 18px;&quot;&gt;Tidak&lt;/font&gt;" style="text;html=1;align=center;verticalAlign=middle;whiteSpace=wrap;rounded=0;" vertex="1" parent="1">
          <mxGeometry x="670" y="1070" width="60" height="30" as="geometry" />
        </mxCell>
        <mxCell id="X5Z6C7hF7MY6zSq2zKzd-108" value="&lt;font style=&quot;font-size: 18px;&quot;&gt;Ya&lt;/font&gt;" style="text;html=1;align=center;verticalAlign=middle;whiteSpace=wrap;rounded=0;" vertex="1" parent="1">
          <mxGeometry x="390" y="1110" width="60" height="30" as="geometry" />
        </mxCell>
        <mxCell id="X5Z6C7hF7MY6zSq2zKzd-109" value="&lt;font style=&quot;font-size: 18px;&quot;&gt;Ya&lt;/font&gt;" style="text;html=1;align=center;verticalAlign=middle;whiteSpace=wrap;rounded=0;" vertex="1" parent="1">
          <mxGeometry x="595" y="1190" width="60" height="30" as="geometry" />
        </mxCell>
        <mxCell id="X5Z6C7hF7MY6zSq2zKzd-110" value="&lt;font style=&quot;font-size: 18px;&quot;&gt;Ya&lt;/font&gt;" style="text;html=1;align=center;verticalAlign=middle;whiteSpace=wrap;rounded=0;" vertex="1" parent="1">
          <mxGeometry x="792.5" y="1260" width="60" height="30" as="geometry" />
        </mxCell>
        <mxCell id="X5Z6C7hF7MY6zSq2zKzd-111" value="&lt;font style=&quot;font-size: 18px;&quot;&gt;Ya&lt;/font&gt;" style="text;html=1;align=center;verticalAlign=middle;whiteSpace=wrap;rounded=0;" vertex="1" parent="1">
          <mxGeometry x="1685" y="610" width="60" height="30" as="geometry" />
        </mxCell>
        <mxCell id="X5Z6C7hF7MY6zSq2zKzd-112" value="&lt;font style=&quot;font-size: 18px;&quot;&gt;Tidak&lt;/font&gt;" style="text;html=1;align=center;verticalAlign=middle;whiteSpace=wrap;rounded=0;" vertex="1" parent="1">
          <mxGeometry x="1800" y="490" width="60" height="30" as="geometry" />
        </mxCell>
        <mxCell id="X5Z6C7hF7MY6zSq2zKzd-115" value="&lt;font style=&quot;font-size: 18px;&quot;&gt;Ya&lt;/font&gt;" style="text;html=1;align=center;verticalAlign=middle;whiteSpace=wrap;rounded=0;" vertex="1" parent="1">
          <mxGeometry x="2010" y="1610" width="60" height="30" as="geometry" />
        </mxCell>
        <mxCell id="X5Z6C7hF7MY6zSq2zKzd-116" value="&lt;font style=&quot;font-size: 18px;&quot;&gt;Tidak&lt;/font&gt;" style="text;html=1;align=center;verticalAlign=middle;whiteSpace=wrap;rounded=0;" vertex="1" parent="1">
          <mxGeometry x="2110" y="1480" width="60" height="30" as="geometry" />
        </mxCell>
        <mxCell id="X5Z6C7hF7MY6zSq2zKzd-123" style="edgeStyle=orthogonalEdgeStyle;rounded=0;orthogonalLoop=1;jettySize=auto;html=1;entryX=0.5;entryY=0;entryDx=0;entryDy=0;" edge="1" parent="1" source="X5Z6C7hF7MY6zSq2zKzd-117" target="X5Z6C7hF7MY6zSq2zKzd-122">
          <mxGeometry relative="1" as="geometry" />
        </mxCell>
        <mxCell id="X5Z6C7hF7MY6zSq2zKzd-141" style="edgeStyle=orthogonalEdgeStyle;rounded=0;orthogonalLoop=1;jettySize=auto;html=1;" edge="1" parent="1" source="X5Z6C7hF7MY6zSq2zKzd-117" target="X5Z6C7hF7MY6zSq2zKzd-120">
          <mxGeometry relative="1" as="geometry" />
        </mxCell>
        <mxCell id="X5Z6C7hF7MY6zSq2zKzd-117" value="&lt;div&gt;&lt;font style=&quot;font-size: 18px;&quot;&gt;&lt;br&gt;&lt;/font&gt;&lt;/div&gt;&lt;div&gt;&lt;font style=&quot;font-size: 18px;&quot;&gt;Mengisi form&lt;/font&gt;&lt;/div&gt;&lt;div&gt;&lt;font style=&quot;font-size: 18px;&quot;&gt;pengembalian&lt;/font&gt;&lt;/div&gt;" style="html=1;strokeWidth=2;shape=manualInput;whiteSpace=wrap;rounded=1;size=26;arcSize=11;" vertex="1" parent="1">
          <mxGeometry x="1919" y="1660" width="159.5" height="80" as="geometry" />
        </mxCell>
        <mxCell id="X5Z6C7hF7MY6zSq2zKzd-126" style="edgeStyle=orthogonalEdgeStyle;rounded=0;orthogonalLoop=1;jettySize=auto;html=1;entryX=0.5;entryY=0;entryDx=0;entryDy=0;" edge="1" parent="1" source="X5Z6C7hF7MY6zSq2zKzd-120" target="X5Z6C7hF7MY6zSq2zKzd-121">
          <mxGeometry relative="1" as="geometry" />
        </mxCell>
        <mxCell id="X5Z6C7hF7MY6zSq2zKzd-120" value="&lt;font style=&quot;font-size: 18px;&quot;&gt;DataBase&lt;/font&gt;" style="strokeWidth=2;html=1;shape=mxgraph.flowchart.database;whiteSpace=wrap;" vertex="1" parent="1">
          <mxGeometry x="2440" y="1660" width="90" height="80" as="geometry" />
        </mxCell>
        <mxCell id="X5Z6C7hF7MY6zSq2zKzd-121" value="&lt;div&gt;&lt;font style=&quot;font-size: 18px;&quot;&gt;&lt;br&gt;&lt;/font&gt;&lt;/div&gt;&lt;div&gt;&lt;font style=&quot;font-size: 18px;&quot;&gt;Data&amp;nbsp;&lt;/font&gt;&lt;/div&gt;&lt;div&gt;&lt;font style=&quot;font-size: 18px;&quot;&gt;Pengembalian&lt;/font&gt;&lt;/div&gt;" style="html=1;strokeWidth=2;shape=manualInput;whiteSpace=wrap;rounded=1;size=26;arcSize=11;" vertex="1" parent="1">
          <mxGeometry x="2405" y="1790" width="160" height="80" as="geometry" />
        </mxCell>
        <mxCell id="X5Z6C7hF7MY6zSq2zKzd-138" style="edgeStyle=orthogonalEdgeStyle;rounded=0;orthogonalLoop=1;jettySize=auto;html=1;" edge="1" parent="1" source="X5Z6C7hF7MY6zSq2zKzd-122" target="X5Z6C7hF7MY6zSq2zKzd-134">
          <mxGeometry relative="1" as="geometry" />
        </mxCell>
        <mxCell id="X5Z6C7hF7MY6zSq2zKzd-122" value="&lt;div&gt;&lt;font style=&quot;font-size: 18px;&quot;&gt;&lt;br&gt;&lt;/font&gt;&lt;/div&gt;&lt;div&gt;&lt;font style=&quot;font-size: 18px;&quot;&gt;Mengisi form&lt;/font&gt;&lt;/div&gt;&lt;div&gt;&lt;font style=&quot;font-size: 18px;&quot;&gt;pengembalian&lt;/font&gt;&lt;/div&gt;" style="html=1;strokeWidth=2;shape=manualInput;whiteSpace=wrap;rounded=1;size=26;arcSize=11;" vertex="1" parent="1">
          <mxGeometry x="1920" y="1790" width="159.5" height="80" as="geometry" />
        </mxCell>
        <mxCell id="X5Z6C7hF7MY6zSq2zKzd-127" value="&lt;span style=&quot;font-size: 18px;&quot;&gt;halaman&amp;nbsp;&lt;/span&gt;&lt;div&gt;&lt;span style=&quot;font-size: 18px;&quot;&gt;Peminjaman&lt;/span&gt;&lt;/div&gt;" style="strokeWidth=2;html=1;shape=mxgraph.flowchart.display;whiteSpace=wrap;" vertex="1" parent="1">
          <mxGeometry x="1925" y="980" width="150" height="70" as="geometry" />
        </mxCell>
        <mxCell id="X5Z6C7hF7MY6zSq2zKzd-128" style="edgeStyle=orthogonalEdgeStyle;rounded=0;orthogonalLoop=1;jettySize=auto;html=1;entryX=0;entryY=0.5;entryDx=0;entryDy=0;entryPerimeter=0;" edge="1" parent="1" source="X5Z6C7hF7MY6zSq2zKzd-90" target="X5Z6C7hF7MY6zSq2zKzd-127">
          <mxGeometry relative="1" as="geometry">
            <Array as="points">
              <mxPoint x="1671" y="1015" />
            </Array>
          </mxGeometry>
        </mxCell>
        <mxCell id="X5Z6C7hF7MY6zSq2zKzd-129" style="edgeStyle=orthogonalEdgeStyle;rounded=0;orthogonalLoop=1;jettySize=auto;html=1;entryX=1;entryY=0.5;entryDx=0;entryDy=0;entryPerimeter=0;" edge="1" parent="1" source="X5Z6C7hF7MY6zSq2zKzd-89" target="X5Z6C7hF7MY6zSq2zKzd-127">
          <mxGeometry relative="1" as="geometry">
            <Array as="points">
              <mxPoint x="2485" y="1015" />
            </Array>
          </mxGeometry>
        </mxCell>
        <mxCell id="X5Z6C7hF7MY6zSq2zKzd-131" style="edgeStyle=orthogonalEdgeStyle;rounded=0;orthogonalLoop=1;jettySize=auto;html=1;entryX=0.5;entryY=0;entryDx=0;entryDy=0;entryPerimeter=0;" edge="1" parent="1" source="X5Z6C7hF7MY6zSq2zKzd-127" target="X5Z6C7hF7MY6zSq2zKzd-94">
          <mxGeometry relative="1" as="geometry" />
        </mxCell>
        <mxCell id="X5Z6C7hF7MY6zSq2zKzd-132" style="edgeStyle=orthogonalEdgeStyle;rounded=0;orthogonalLoop=1;jettySize=auto;html=1;entryX=1;entryY=0.5;entryDx=0;entryDy=0;entryPerimeter=0;" edge="1" parent="1" source="X5Z6C7hF7MY6zSq2zKzd-97" target="X5Z6C7hF7MY6zSq2zKzd-100">
          <mxGeometry relative="1" as="geometry">
            <Array as="points">
              <mxPoint x="2230" y="1515" />
              <mxPoint x="2230" y="1285" />
            </Array>
          </mxGeometry>
        </mxCell>
        <mxCell id="X5Z6C7hF7MY6zSq2zKzd-134" value="&lt;span style=&quot;font-size: 18px;&quot;&gt;halaman&amp;nbsp;&lt;/span&gt;&lt;div&gt;&lt;span style=&quot;font-size: 18px;&quot;&gt;Pengembalian&lt;/span&gt;&lt;/div&gt;" style="strokeWidth=2;html=1;shape=mxgraph.flowchart.display;whiteSpace=wrap;" vertex="1" parent="1">
          <mxGeometry x="1923.5" y="2000" width="150" height="70" as="geometry" />
        </mxCell>
        <mxCell id="X5Z6C7hF7MY6zSq2zKzd-140" style="edgeStyle=orthogonalEdgeStyle;rounded=0;orthogonalLoop=1;jettySize=auto;html=1;entryX=1;entryY=0.5;entryDx=0;entryDy=0;entryPerimeter=0;" edge="1" parent="1" source="X5Z6C7hF7MY6zSq2zKzd-121" target="X5Z6C7hF7MY6zSq2zKzd-134">
          <mxGeometry relative="1" as="geometry">
            <Array as="points">
              <mxPoint x="2485" y="2035" />
            </Array>
          </mxGeometry>
        </mxCell>
      </root>
    </mxGraphModel>
  </diagram>
</mxfile>
